<?xml version="1.0" standalone="no"?>
<svg xmlns="http://www.w3.org/2000/svg" width="292.4477816796352" height="156.76778167963522" viewBox="0 0 292.4477816796352 156.76778167963522"><path fill="#1c2149" fill-rule="nonzero" d="M6.20 34.68L0 34.68L0 0.32L10.48 0.32L13.36 21.28L16.24 0.32L26.80 0.32L26.80 34.68L20.52 34.68L20.52 9.92L16.56 34.68L10.40 34.68L6.20 9.92L6.20 34.68ZM38.04 35Q33.88 35 31.72 32.46Q29.56 29.92 29.56 25.32L29.56 25.32L29.56 8.96Q29.56 4.52 31.72 2.26Q33.88 0 38.04 0L38.04 0Q42.20 0 44.36 2.26Q46.52 4.52 46.52 8.96L46.52 8.96L46.52 25.32Q46.52 29.96 44.36 32.48Q42.20 35 38.04 35L38.04 35ZM38.04 28.68Q38.96 28.68 39.28 27.88Q39.60 27.08 39.60 25.64L39.60 25.64L39.60 8.84Q39.60 7.72 39.30 7.02Q39 6.32 38.08 6.32L38.08 6.32Q36.36 6.32 36.36 8.92L36.36 8.92L36.36 25.68Q36.36 27.16 36.72 27.92Q37.08 28.68 38.04 28.68L38.04 28.68ZM56.00 34.68L49.28 34.68L49.28 0.32L56.36 0.32L59.52 16.76L59.52 0.32L66.16 0.32L66.16 34.68L59.44 34.68L56.00 17.48L56.00 34.68ZM76.04 34.68L69.20 34.68L69.20 0.32L76 0.32L76 14.08L79.20 0.32L86.12 0.32L82.28 16.04L86.92 34.68L79.80 34.68L76.04 18.04L76.04 34.68ZM102.28 34.68L88.08 34.68L88.08 0.32L101.84 0.32L101.84 6.96L95.08 6.96L95.08 13.64L101.56 13.64L101.56 20.12L95.08 20.12L95.08 28L102.28 28L102.28 34.68ZM115.20 34.68L108.72 34.68L108.72 23.36L103.24 0.32L110.04 0.32L111.96 11.96L113.88 0.32L120.68 0.32L115.20 23.36L115.20 34.68Z" transform="translate(0 0) scale(1)"></path><path fill="#1c2149" fill-rule="nonzero" d="M8.28 35Q4.52 35 2.26 32.64Q0 30.28 0 26.16L0 26.16L0 10.32Q0 5.20 2.04 2.60Q4.08 0 8.44 0L8.44 0Q12.24 0 14.56 2.08Q16.88 4.16 16.88 8.08L16.88 8.08L16.88 14L10.04 14L10.04 8.92Q10.04 7.44 9.68 6.88Q9.32 6.32 8.44 6.32L8.44 6.32Q7.52 6.32 7.18 6.96Q6.84 7.60 6.84 8.84L6.84 8.84L6.84 26.08Q6.84 27.44 7.24 28.06Q7.64 28.68 8.44 28.68L8.44 28.68Q10.04 28.68 10.04 26.08L10.04 26.08L10.04 19.88L16.96 19.88L16.96 26.36Q16.96 35 8.28 35L8.28 35ZM25.56 34.68L18.92 34.68L18.92 0.32L25.56 0.32L25.56 34.68ZM38.16 34.68L31.28 34.68L31.28 6.92L27.20 6.92L27.20 0.32L42.24 0.32L42.24 6.92L38.16 6.92L38.16 34.68ZM54.80 34.68L48.32 34.68L48.32 23.36L42.84 0.32L49.64 0.32L51.56 11.96L53.48 0.32L60.28 0.32L54.80 23.36L54.80 34.68Z" transform="translate(0 43) scale(2.002)"></path><path fill="#1c2149" fill-rule="nonzero" d="M8.84 35Q4.16 35 2.08 32.68Q0 30.36 0 25.20L0 25.20L0 21.84L6.76 21.84L6.76 26.12Q6.76 28.68 8.40 28.68L8.40 28.68Q9.32 28.68 9.68 28.14Q10.04 27.60 10.04 26.32L10.04 26.32Q10.04 24.64 9.64 23.54Q9.24 22.44 8.62 21.70Q8 20.96 6.40 19.40L6.40 19.40L3.44 16.44Q0 13.08 0 9L0 9Q0 4.60 2.02 2.30Q4.04 0 7.92 0L7.92 0Q12.56 0 14.60 2.46Q16.64 4.92 16.64 10.16L16.64 10.16L9.64 10.16L9.60 7.80Q9.60 7.12 9.22 6.72Q8.84 6.32 8.16 6.32L8.16 6.32Q7.36 6.32 6.96 6.76Q6.56 7.20 6.56 7.96L6.56 7.96Q6.56 9.64 8.48 11.44L8.48 11.44L12.48 15.28Q13.88 16.64 14.80 17.86Q15.72 19.08 16.28 20.74Q16.84 22.40 16.84 24.68L16.84 24.68Q16.84 29.76 14.98 32.38Q13.12 35 8.84 35L8.84 35ZM28.96 34.68L22.08 34.68L22.08 6.92L18 6.92L18 0.32L33.04 0.32L33.04 6.92L28.96 6.92L28.96 34.68ZM42.92 35Q38.68 35 36.62 32.60Q34.56 30.20 34.56 25.48L34.56 25.48L34.56 0.32L41.24 0.32L41.24 25.20Q41.24 26.84 41.56 27.76Q41.88 28.68 42.92 28.68L42.92 28.68Q43.96 28.68 44.28 27.78Q44.60 26.88 44.60 25.20L44.60 25.20L44.60 0.32L51.28 0.32L51.28 25.48Q51.28 30.20 49.22 32.60Q47.16 35 42.92 35L42.92 35ZM53.92 34.68L53.92 0.32L63.40 0.32Q67.08 0.32 68.92 2.36Q70.76 4.40 70.80 8.40L70.80 8.40L70.88 24.48Q70.92 29.56 69.12 32.12Q67.32 34.68 63.16 34.68L63.16 34.68L53.92 34.68ZM60.84 28.60L62.04 28.60Q63.92 28.60 63.92 26.76L63.92 26.76L63.92 9.04Q63.92 7.88 63.74 7.30Q63.56 6.72 63.08 6.52Q62.60 6.32 61.60 6.32L61.60 6.32L60.84 6.32L60.84 28.60ZM79.96 34.68L73.32 34.68L73.32 0.32L79.96 0.32L79.96 34.68ZM90.92 35Q86.76 35 84.60 32.46Q82.44 29.92 82.44 25.32L82.44 25.32L82.44 8.96Q82.44 4.52 84.60 2.26Q86.76 0 90.92 0L90.92 0Q95.08 0 97.24 2.26Q99.40 4.52 99.40 8.96L99.40 8.96L99.40 25.32Q99.40 29.96 97.24 32.48Q95.08 35 90.92 35L90.92 35ZM90.92 28.68Q91.84 28.68 92.16 27.88Q92.48 27.08 92.48 25.64L92.48 25.64L92.48 8.84Q92.48 7.72 92.18 7.02Q91.88 6.32 90.96 6.32L90.96 6.32Q89.24 6.32 89.24 8.92L89.24 8.92L89.24 25.68Q89.24 27.16 89.60 27.92Q89.96 28.68 90.92 28.68L90.92 28.68ZM110.32 35Q105.64 35 103.56 32.68Q101.48 30.36 101.48 25.20L101.48 25.20L101.48 21.84L108.24 21.84L108.24 26.12Q108.24 28.68 109.88 28.68L109.88 28.68Q110.80 28.68 111.16 28.14Q111.52 27.60 111.52 26.32L111.52 26.32Q111.52 24.64 111.12 23.54Q110.72 22.44 110.10 21.70Q109.48 20.96 107.88 19.40L107.88 19.40L104.92 16.44Q101.48 13.08 101.48 9L101.48 9Q101.48 4.60 103.50 2.30Q105.52 0 109.40 0L109.40 0Q114.04 0 116.08 2.46Q118.12 4.92 118.12 10.16L118.12 10.16L111.12 10.16L111.08 7.80Q111.08 7.12 110.70 6.72Q110.32 6.32 109.64 6.32L109.64 6.32Q108.84 6.32 108.44 6.76Q108.04 7.20 108.04 7.96L108.04 7.96Q108.04 9.64 109.96 11.44L109.96 11.44L113.96 15.28Q115.36 16.64 116.28 17.86Q117.20 19.08 117.76 20.74Q118.32 22.40 118.32 24.68L118.32 24.68Q118.32 29.76 116.46 32.38Q114.60 35 110.32 35L110.32 35Z" transform="translate(0 121.07) scale(1.02)"></path><g fill="#00936f" color="#00936f" transform="translate(135.68 3.818) scale(1.5908082)"><svg width="98.546" height="93.746" x="0.0" y="0.0" viewBox="0 0 98.546 93.746"><path fill-rule="evenodd" clip-rule="evenodd" d="M43.58,45.366c0.84-2.52,3-3.89,4.7-3.04c1.6,0.8,2.14,3.28,1.3,5.52  c-0.81,2.18-2.7,3.49-4.31,2.95C43.57,50.226,42.76,47.815,43.58,45.366z"></path><path fill-rule="evenodd" clip-rule="evenodd" d="M51.66,47.846c-0.84-2.24-0.3-4.72,1.3-5.52c1.7-0.85,3.86,0.52,4.7,3.04  c0.82,2.45,0.01,4.86-1.69,5.43C54.36,51.335,52.47,50.025,51.66,47.846z"></path><g><ellipse fill-rule="evenodd" clip-rule="evenodd" fill="currentColor" cx="37.12" cy="35.746" rx="4" ry="5"></ellipse></g><path fill-rule="evenodd" clip-rule="evenodd" d="M57.729,34.746c0-3.87,2.55-7,5.69-7c3.15,0,5.7,3.13,5.7,7s-2.55,7-5.7,7  C60.28,41.746,57.729,38.616,57.729,34.746z"></path><path fill-rule="evenodd" clip-rule="evenodd" d="M31.12,34.746c0-3.87,2.55-7,5.7-7c3.14,0,5.69,3.13,5.69,7s-2.55,7-5.69,7  C33.669,41.746,31.12,38.616,31.12,34.746z"></path><path fill-rule="evenodd" clip-rule="evenodd" d="M26.12,24.746c0,2.25,15,9.25,24,9s23.5-5.25,23-8s-7.5,3.5-22,3  S26.12,22.496,26.12,24.746z"></path><g><path fill-rule="evenodd" clip-rule="evenodd" d="M2.12,71.926c0-3.54,22.65-14.56,36.25-14.17c13.59,0.39,35.49,8.27,34.73,12.6   c-0.75,4.33-11.33-5.51-33.22-4.73C17.979,66.416,2.12,75.466,2.12,71.926z"></path></g><path fill-rule="evenodd" clip-rule="evenodd" d="M10.669,30.516c-4.88-1.38-5.58,4.97-5.58,4.97l2.79-3.31c0,0-1.31,4.69,0.47,6.21  S15.55,31.896,10.669,30.516z"></path><path fill-rule="evenodd" clip-rule="evenodd" d="M87.8,30.516c-4.88,1.38,0.54,9.39,2.32,7.87s0.46-6.21,0.46-6.21l2.79,3.31  C93.37,35.486,92.669,29.136,87.8,30.516z"></path><path fill-rule="evenodd" clip-rule="evenodd" d="M27.12,37.166c-10.77,4.67-19,13.15-19,26.08c0,21.27,22.25,30.5,41.5,30.5  s41.5-9.23,41.5-30.5c0-3.17-0.49-6.07-1.4-8.71c-0.81-2.37-3.51-6.58-4.7-8.76c-0.18-0.33-0.32-0.66-0.39-0.99  c20.09,5.43,17.14-31.51-0.61-21.23c-2.88-8.1-8.96-11.87-16.23-14.67c13.21-1.89-5.38-2.81-6.57-2.99c0.18-0.68,3.7-2.79-6.72-2.27  c10.62-6.38-32.13-6.88-40.23,19.96c-17.7-10.32-19.4,25.91-2.48,20.99c2.13-0.96,2.48-1.86,2.65-2.68  c0.25-1.21-0.81-1.85-1.92-1.36c-13.14,5.82-13.1-20.7,1.71-10.65c0.84,0.56,1.74,0.24,2.06-0.74c3.52-10.81,11.96-15.93,21.9-18.94  c-1.1,0.88-0.36,2.83,1.28,2.43c3.57-0.87,6.6-1.37,9.48-1.57c-2.85,1.26-2.38,3.96-0.12,3.19c13.72-4.73,28.95,0.38,33.11,14.84  c0.29,1.02,1.22,1.39,2.07,0.78c14.03-10.17,15.25,16.53,0.38,11.38c-1.02-0.36-8.65-2.24-10.17-3.11c-0.38-0.2-0.77-0.38-1.17-0.56  c2.74,2.87,10.4,11.83,10.85,25.66c0.48,14.56-15.64,26.25-34.28,26.25s-34.28-11.69-34.28-26.25  C15.34,54.636,19.169,44.625,27.12,37.166z"></path></svg></g></svg>